<?xml version="1.0" encoding="utf-8"?>
<svg viewBox="68.585 84.91 202.83 74.18" xmlns="http://www.w3.org/2000/svg">
    <defs>
        <filter id="d">
            <feColorMatrix values="0 0 0 0 0.99609375 0 0 0 0 0.99609375 0 0 0 0 0.99609375 0 0 0 1 0"/>
        </filter>
        <linearGradient id="b" x1="0" x2="0" y1="1" y2="0">
            <stop offset="0" stop-color="#ff5857"/>
            <stop offset="1" stop-color="#f09819"/>
        </linearGradient>
        <linearGradient id="c" x1="0" x2="0" y1="1" y2="0">
            <stop offset="0" stop-color="#ff5857"/>
            <stop offset="1" stop-color="#f09819"/>
        </linearGradient>
    </defs>
    <mask id="a">
        <g filter="url(#d)">
            <g class="imagesvg">
                <path fill="#0a0619" fill-opacity="0" stroke-width="2" d="M0 0h76.67731985v54.02436385H0z"
                      class="image-rect"/>
                <svg width="76.67731985" height="54.02436385" class="image-svg-svg primary">
                    <svg xmlns="http://www.w3.org/2000/svg" viewBox="-0.00142825 0.00042039 98.40425873 69.33265686">
                        <path fill="#070707"
                              d="M39.063.001c-.082.014-.165.02-.241.035a2.27 2.27 0 0 0-1.642 1.117L.25 65.98c-.787 1.36.386 3.367 1.96 3.353h93.985c1.567.014 2.74-1.994 1.96-3.353L70.182 16.803c-.441-.78-1.386-1.25-2.27-1.118a2.27 2.27 0 0 0-1.642 1.118l-8.114 14.283L41.092 1.153A2.273 2.273 0 0 0 39.063.001zm29.16 22.46 24.13 42.4H44.1l15.876-27.91c.028-.049.049-.09.07-.138l.034-.035c.041-.069.076-.138.103-.207l8.039-14.11z"/>
                    </svg>
                </svg>
            </g>
        </g>
    </mask>
    <g fill="#0a0619" class="iconlinesvg-g iconlinesvg">
        <g class="tp-name">
            <path d="m112.76511346 140.43003725-20.2-45.02h-3.79l-20.19 45.02h3.73l4.88-11.06h26.88l4.96 11.06Zm-34.22-14.28 12.09-27.39 12.09 27.39Zm75.2707522 5.86c-3.86 3.79-9 5.72-14.08 5.72-12.99 0-19.68-9.13-19.81-19.68-.06-10.8 6.69-20.06 19.81-20.06 5.08 0 10.16 1.86 14.02 5.72l2.38-2.06c-4.51-4.5-10.49-6.75-16.4-6.75-15.44 0-23.28 11.25-23.15 23.28.06 12.15 7.97 22.76 23.15 22.76 5.91 0 11.89-2.25 16.4-6.75Z"/>
            <g mask="url(#a)" transform="translate(159.58064401 90.90981674)">
                <g class="imagesvg">
                    <path fill="none" d="M0 0h76.67731985v54.02436385H0z" class="image-rect"/>
                    <svg width="76.67731985" height="54.02436385" class="image-svg-svg primary">
                        <svg xmlns="http://www.w3.org/2000/svg"
                             viewBox="-0.00142825 0.00042039 98.40425873 69.33265686">
                            <path fill="#070707"
                                  d="M39.063.001c-.082.014-.165.02-.241.035a2.27 2.27 0 0 0-1.642 1.117L.25 65.98c-.787 1.36.386 3.367 1.96 3.353h93.985c1.567.014 2.74-1.994 1.96-3.353L70.182 16.803c-.441-.78-1.386-1.25-2.27-1.118a2.27 2.27 0 0 0-1.642 1.118l-8.114 14.283L41.092 1.153A2.273 2.273 0 0 0 39.063.001zm29.16 22.46 24.13 42.4H44.1l15.876-27.91c.028-.049.049-.09.07-.138l.034-.035c.041-.069.076-.138.103-.207l8.039-14.11z"/>
                        </svg>
                    </svg>
                </g>
                <path fill="url(#b)" d="M0 0h88.67732239v66.02436447H0z" pointer-events="none"
                      transform="translate(-6 -6)"/>
            </g>
            <path d="M242.98488838 98.69003725h27.66v-3.28h-31.06v45.02h31.83v-3.34h-28.43v-17.75h26.37v-3.15h-26.37Z"/>
        </g>
        <path fill="url(#c)"
              d="M0 3.5800004h74.40488815v1H0zm118.4248848 0h74.40488815v1H118.4248848zM77.40488815.146v7.87h2.02c.59 0 1.11-.09 1.57-.27.45-.18.84-.44 1.15-.78.31-.34.55-.76.71-1.25.16-.49.24-1.05.24-1.67 0-1.26-.32-2.22-.95-2.89-.63-.68-1.56-1.01-2.77-1.01Zm1.9 7.05h-.9V.956h.9c.92 0 1.61.27 2.07.8.46.52.69 1.29.69 2.29s-.23 1.77-.69 2.33c-.46.55-1.15.82-2.07.82Zm5.48-7.05v7.87h1V.146Zm2.7 3.93c0 .64.09 1.22.26 1.73.18.5.42.93.74 1.28.31.35.68.61 1.11.8.43.18.91.27 1.43.27.53 0 1-.08 1.42-.25.42-.18.76-.39 1.02-.66v-3.31h-2.58v.83h1.66v2.05c-.16.14-.36.26-.61.34-.26.09-.52.13-.8.13-.43 0-.8-.08-1.12-.23-.33-.15-.6-.37-.82-.65-.22-.28-.39-.62-.5-1.01-.12-.4-.18-.84-.18-1.34 0-.49.06-.93.19-1.32.12-.39.3-.73.52-1 .22-.28.5-.49.82-.64.32-.15.68-.22 1.08-.22s.73.07.99.21c.26.14.49.31.69.52l.56-.63c-.23-.24-.53-.47-.89-.67-.37-.2-.82-.31-1.37-.31-.52 0-1.01.1-1.45.29-.44.18-.82.45-1.14.81-.33.35-.58.78-.76 1.28-.18.5-.27 1.07-.27 1.7Zm7.86-3.93v7.87h1V.146Zm4.79.84v7.03h1.01V.986h2.37v-.84h-5.76v.84Zm7.67 3.83h-2.37l.37-1.2c.15-.44.28-.88.41-1.32.13-.43.25-.88.37-1.34h.05c.13.46.26.91.39 1.34.12.44.26.88.4 1.32Zm.25.8.74 2.4h1.07l-2.66-7.87h-1.13l-2.67 7.87h1.02l.76-2.4Zm2.93-5.47v7.87h4.44v-.85h-3.45V.146Z"
              class="tp-slogan" transform="translate(73.58064401 150.93418121)"/>
    </g>
</svg>
